<?xml version="1.0" encoding="utf-8"?>
<!-- Svg Vector Icons : http://www.onlinewebfonts.com/icon -->
<!DOCTYPE svg PUBLIC "-//W3C//DTD SVG 1.1//EN" "http://www.w3.org/Graphics/SVG/1.1/DTD/svg11.dtd">
<svg version="1.1" xmlns="http://www.w3.org/2000/svg" xmlns:xlink="http://www.w3.org/1999/xlink" x="0px" y="0px" viewBox="0 0 1000 1000" enable-background="new 0 0 1000 1000" xml:space="preserve">
<metadata> Svg Vector Icons : http://www.onlinewebfonts.com/icon </metadata>
<g><path d="M990,500c0-270.6-219.4-490-490-490C229.4,10,10,229.4,10,500c0,270.6,219.4,490,490,490c112.4,0,219-38,305.1-106.5c10.3-8.2,12-23.3,3.8-33.6s-23.3-12-33.6-3.8C697.6,908,601.4,942.2,500,942.2c-244.2,0-442.2-198-442.2-442.2c0-244.2,198-442.2,442.2-442.2s442.2,198,442.2,442.2c0,83.7-23.3,164-66.6,233.5c-7,11.2-3.6,25.9,7.7,32.9c11.2,7,25.9,3.6,32.9-7.6C964.2,681.7,990,592.7,990,500z"/><path d="M332.7,488c33,0,59.8-26.8,59.8-59.8c0-33-26.8-59.8-59.8-59.8c-33,0-59.8,26.8-59.8,59.8C272.9,461.3,299.7,488,332.7,488z M691.2,488c33,0,59.8-26.8,59.8-59.8c0-33-26.8-59.8-59.8-59.8s-59.8,26.8-59.8,59.8C631.5,461.3,658.2,488,691.2,488z"/><path d="M347.6,745.7c41.5,33.2,96.1,53,164.3,53c68.3,0,122.8-19.8,164.3-53c25.4-20.3,40.9-40.9,48.3-55.8c5.9-11.8,1.1-26.2-10.7-32.1s-26.2-1.1-32.1,10.7c-0.9,1.8-3.3,5.8-7.5,11.3c-7.2,9.7-16.5,19.4-27.9,28.5C613.2,735,569.2,751,512,751c-57.2,0-101.3-16-134.5-42.6c-11.4-9.1-20.7-18.9-27.9-28.5c-4.1-5.5-6.6-9.5-7.5-11.3c-5.9-11.8-20.3-16.6-32.1-10.7s-16.6,20.3-10.7,32.1C306.8,704.8,322.3,725.4,347.6,745.7z"/></g>
</svg>
